<?xml version="1.0" encoding="UTF-8" standalone="no"?><svg xmlns="http://www.w3.org/2000/svg" xmlns:xlink="http://www.w3.org/1999/xlink" contentScriptType="application/ecmascript" contentStyleType="text/css" height="319px" preserveAspectRatio="none" style="width:237px;height:319px;" version="1.1" viewBox="0 0 237 319" width="237px" zoomAndPan="magnify"><defs><filter height="300%" id="f4n0oxe" width="300%" x="-1" y="-1"><feGaussianBlur result="blurOut" stdDeviation="2.0"/><feColorMatrix in="blurOut" result="blurOut2" type="matrix" values="0 0 0 0 0 0 0 0 0 0 0 0 0 0 0 0 0 0 .4 0"/><feOffset dx="4.0" dy="4.0" in="blurOut2" result="blurOut3"/><feBlend in="SourceGraphic" in2="blurOut3" mode="normal"/></filter></defs><g><!--class app_project--><rect fill="#FEFECE" filter="url(#f4n0oxe)" height="125.7305" style="stroke: #A80036; stroke-width: 1.5;" width="228" x="0" y="184.6855"/><ellipse cx="87.75" cy="200.6855" fill="#ADD1B2" rx="11" ry="11" style="stroke: #A80036; stroke-width: 1.0;"/><path d="M91.3643,207.1855 L83.6445,207.1855 L83.6445,194.7925 L91.3643,194.7925 L91.3643,196.9507 L86.0933,196.9507 L86.0933,199.6235 L90.8662,199.6235 L90.8662,201.7817 L86.0933,201.7817 L86.0933,205.0273 L91.3643,205.0273 Z "/><text fill="#000000" font-family="sans-serif" font-size="12" lengthAdjust="spacingAndGlyphs" textLength="44" x="108.25" y="205.2207">Проект</text><line style="stroke: #A80036; stroke-width: 1.5;" x1="1" x2="227" y1="216.6855" y2="216.6855"/><ellipse cx="11" cy="228.6631" fill="#000000" rx="3" ry="3" style="stroke: #000000; stroke-width: 1.0;"/><text fill="#000000" font-family="sans-serif" font-size="11" lengthAdjust="spacingAndGlyphs" textLength="202" x="20" y="231.3203">"Уникальный код" : "Целочисленный"</text><line style="stroke: #A80036; stroke-width: 1.0;" x1="1" x2="227" y1="237.6406" y2="237.6406"/><text fill="#000000" font-family="sans-serif" font-size="11" lengthAdjust="spacingAndGlyphs" textLength="115" x="6" y="252.2754">"Название" : "Строка"</text><text fill="#000000" font-family="sans-serif" font-size="11" lengthAdjust="spacingAndGlyphs" textLength="119" x="6" y="265.2305">"Описание" : "Строка"</text><text fill="#000000" font-family="sans-serif" font-size="11" lengthAdjust="spacingAndGlyphs" textLength="100" x="6" y="278.1855">"Статус" : "Строка"</text><text fill="#000000" font-family="sans-serif" font-size="11" lengthAdjust="spacingAndGlyphs" textLength="168" x="6" y="291.1406">"Дата создания" : "Дата/Время"</text><text fill="#000000" font-family="sans-serif" font-size="11" lengthAdjust="spacingAndGlyphs" textLength="183" x="6" y="304.0957">"Дата обновления" : "Дата/Время"</text><!--class app_task--><rect fill="#FEFECE" filter="url(#f4n0oxe)" height="138.6855" style="stroke: #A80036; stroke-width: 1.5;" width="228" x="0" y="9.6855"/><ellipse cx="88.75" cy="25.6855" fill="#ADD1B2" rx="11" ry="11" style="stroke: #A80036; stroke-width: 1.0;"/><path d="M92.3643,32.1855 L84.6445,32.1855 L84.6445,19.7925 L92.3643,19.7925 L92.3643,21.9507 L87.0933,21.9507 L87.0933,24.6235 L91.8662,24.6235 L91.8662,26.7817 L87.0933,26.7817 L87.0933,30.0273 L92.3643,30.0273 Z "/><text fill="#000000" font-family="sans-serif" font-size="12" lengthAdjust="spacingAndGlyphs" textLength="42" x="109.25" y="30.2207">Задачи</text><line style="stroke: #A80036; stroke-width: 1.5;" x1="1" x2="227" y1="41.6855" y2="41.6855"/><ellipse cx="11" cy="53.6631" fill="#000000" rx="3" ry="3" style="stroke: #000000; stroke-width: 1.0;"/><text fill="#000000" font-family="sans-serif" font-size="11" lengthAdjust="spacingAndGlyphs" textLength="202" x="20" y="56.3203">"Уникальный код" : "Целочисленный"</text><line style="stroke: #A80036; stroke-width: 1.0;" x1="1" x2="227" y1="62.6406" y2="62.6406"/><text fill="#000000" font-family="sans-serif" font-size="11" lengthAdjust="spacingAndGlyphs" textLength="115" x="6" y="77.2754">"Название" : "Строка"</text><text fill="#000000" font-family="sans-serif" font-size="11" lengthAdjust="spacingAndGlyphs" textLength="119" x="6" y="90.2305">"Описание" : "Строка"</text><text fill="#000000" font-family="sans-serif" font-size="11" lengthAdjust="spacingAndGlyphs" textLength="100" x="6" y="103.1855">"Статус" : "Строка"</text><text fill="#000000" font-family="sans-serif" font-size="11" lengthAdjust="spacingAndGlyphs" textLength="180" x="6" y="116.1406">"Код проекта" : "Целочисленный"</text><text fill="#000000" font-family="sans-serif" font-size="11" lengthAdjust="spacingAndGlyphs" textLength="168" x="6" y="129.0957">"Дата создания" : "Дата/Время"</text><text fill="#000000" font-family="sans-serif" font-size="11" lengthAdjust="spacingAndGlyphs" textLength="183" x="6" y="142.0508">"Дата обновления" : "Дата/Время"</text><path d="M114,148.8687 C114,160.6931 114,172.9222 114,184.5613 " fill="none" style="stroke: #A80036; stroke-width: 1.0;"/></g></svg>