<?xml version="1.0" encoding="UTF-8" standalone="no"?><svg xmlns="http://www.w3.org/2000/svg" xmlns:xlink="http://www.w3.org/1999/xlink" contentScriptType="application/ecmascript" contentStyleType="text/css" height="319px" preserveAspectRatio="none" style="width:152px;height:319px;" version="1.1" viewBox="0 0 152 319" width="152px" zoomAndPan="magnify"><defs><filter height="300%" id="fhmw1xq" width="300%" x="-1" y="-1"><feGaussianBlur result="blurOut" stdDeviation="2.0"/><feColorMatrix in="blurOut" result="blurOut2" type="matrix" values="0 0 0 0 0 0 0 0 0 0 0 0 0 0 0 0 0 0 .4 0"/><feOffset dx="4.0" dy="4.0" in="blurOut2" result="blurOut3"/><feBlend in="SourceGraphic" in2="blurOut3" mode="normal"/></filter></defs><g><!--class app_project--><rect fill="#FEFECE" filter="url(#fhmw1xq)" height="125.7305" style="stroke: #A80036; stroke-width: 1.5;" width="143" x="0" y="184.6855"/><ellipse cx="33.45" cy="200.6855" fill="#ADD1B2" rx="11" ry="11" style="stroke: #A80036; stroke-width: 1.0;"/><path d="M37.0643,207.1855 L29.3445,207.1855 L29.3445,194.7925 L37.0643,194.7925 L37.0643,196.9507 L31.7933,196.9507 L31.7933,199.6235 L36.5662,199.6235 L36.5662,201.7817 L31.7933,201.7817 L31.7933,205.0273 L37.0643,205.0273 Z "/><text fill="#000000" font-family="sans-serif" font-size="12" lengthAdjust="spacingAndGlyphs" textLength="70" x="51.55" y="205.2207">app_project</text><line style="stroke: #A80036; stroke-width: 1.5;" x1="1" x2="142" y1="216.6855" y2="216.6855"/><ellipse cx="11" cy="228.6631" fill="#000000" rx="3" ry="3" style="stroke: #000000; stroke-width: 1.0;"/><text fill="#000000" font-family="sans-serif" font-size="11" lengthAdjust="spacingAndGlyphs" textLength="59" x="20" y="231.3203">"id" : "uuid"</text><line style="stroke: #A80036; stroke-width: 1.0;" x1="1" x2="142" y1="237.6406" y2="237.6406"/><text fill="#000000" font-family="sans-serif" font-size="11" lengthAdjust="spacingAndGlyphs" textLength="75" x="6" y="252.2754">"name" : "text"</text><text fill="#000000" font-family="sans-serif" font-size="11" lengthAdjust="spacingAndGlyphs" textLength="107" x="6" y="265.2305">"description" : "text"</text><text fill="#000000" font-family="sans-serif" font-size="11" lengthAdjust="spacingAndGlyphs" textLength="108" x="6" y="278.1855">"status_type" : "text"</text><text fill="#000000" font-family="sans-serif" font-size="11" lengthAdjust="spacingAndGlyphs" textLength="127" x="6" y="291.1406">"created" : "timestampz"</text><text fill="#000000" font-family="sans-serif" font-size="11" lengthAdjust="spacingAndGlyphs" textLength="131" x="6" y="304.0957">"updated" : "timestampz"</text><!--class app_task--><rect fill="#FEFECE" filter="url(#fhmw1xq)" height="138.6855" style="stroke: #A80036; stroke-width: 1.5;" width="143" x="0" y="9.6855"/><ellipse cx="41.1" cy="25.6855" fill="#ADD1B2" rx="11" ry="11" style="stroke: #A80036; stroke-width: 1.0;"/><path d="M44.7143,32.1855 L36.9945,32.1855 L36.9945,19.7925 L44.7143,19.7925 L44.7143,21.9507 L39.4433,21.9507 L39.4433,24.6235 L44.2162,24.6235 L44.2162,26.7817 L39.4433,26.7817 L39.4433,30.0273 L44.7143,30.0273 Z "/><text fill="#000000" font-family="sans-serif" font-size="12" lengthAdjust="spacingAndGlyphs" textLength="53" x="60.9" y="30.2207">app_task</text><line style="stroke: #A80036; stroke-width: 1.5;" x1="1" x2="142" y1="41.6855" y2="41.6855"/><ellipse cx="11" cy="53.6631" fill="#000000" rx="3" ry="3" style="stroke: #000000; stroke-width: 1.0;"/><text fill="#000000" font-family="sans-serif" font-size="11" lengthAdjust="spacingAndGlyphs" textLength="59" x="20" y="56.3203">"id" : "uuid"</text><line style="stroke: #A80036; stroke-width: 1.0;" x1="1" x2="142" y1="62.6406" y2="62.6406"/><text fill="#000000" font-family="sans-serif" font-size="11" lengthAdjust="spacingAndGlyphs" textLength="75" x="6" y="77.2754">"name" : "text"</text><text fill="#000000" font-family="sans-serif" font-size="11" lengthAdjust="spacingAndGlyphs" textLength="107" x="6" y="90.2305">"description" : "text"</text><text fill="#000000" font-family="sans-serif" font-size="11" lengthAdjust="spacingAndGlyphs" textLength="108" x="6" y="103.1855">"status_type" : "text"</text><text fill="#000000" font-family="sans-serif" font-size="11" lengthAdjust="spacingAndGlyphs" textLength="103" x="6" y="116.1406">"project_id" : "uuid"</text><text fill="#000000" font-family="sans-serif" font-size="11" lengthAdjust="spacingAndGlyphs" textLength="127" x="6" y="129.0957">"created" : "timestampz"</text><text fill="#000000" font-family="sans-serif" font-size="11" lengthAdjust="spacingAndGlyphs" textLength="131" x="6" y="142.0508">"updated" : "timestampz"</text><path d="M71.5,148.8687 C71.5,160.6931 71.5,172.9222 71.5,184.5613 " fill="none" style="stroke: #A80036; stroke-width: 1.0;"/></g></svg>